<?xml version="1.0" encoding="UTF-8"?>
<svg id="Layer_1" data-name="Layer 1" xmlns="http://www.w3.org/2000/svg" viewBox="0 0 1920 419.82">
  <path d="M1715.83,69.24c-77.57,0-140.67,63.11-140.67,140.67s63.11,140.67,140.67,140.67,140.67-63.11,140.67-140.67-63.11-140.67-140.67-140.67ZM1715.83,303.69c-51.71,0-93.77-42.07-93.77-93.77s42.07-93.77,93.77-93.77,93.77,42.07,93.77,93.77-42.07,93.77-93.77,93.77Z"/>
  <path d="M937.63,69.24c-77.57,0-140.67,63.11-140.67,140.67s63.11,140.67,140.67,140.67c36,0,68.87-13.61,93.77-35.93v31.11h46.9v-133.47h-.06c.01-.8.06-1.58.06-2.38,0-77.57-63.11-140.67-140.67-140.67ZM937.63,303.69c-51.71,0-93.77-42.07-93.77-93.77s42.07-93.77,93.77-93.77,93.77,42.07,93.77,93.77-42.07,93.77-93.77,93.77Z"/>
  <polygon points="1207.44 74.05 1322.55 345.77 1373.03 345.77 1257.92 74.05 1207.44 74.05"/>
  <polygon points="1544.52 74.05 1452.59 291.04 1360.66 74.05 1310.18 74.05 1425.29 345.77 1429.4 345.77 1475.77 345.77 1479.88 345.77 1595 74.05 1544.52 74.05"/>
  <path d="M204.17,116.14c40.09,0,74.36,25.29,87.75,60.75h48.97c-14.9-61.68-70.53-107.65-136.72-107.65-77.57,0-140.67,63.11-140.67,140.67s63.11,140.67,140.67,140.67c66.19,0,121.82-45.97,136.72-107.65h-48.97c-13.39,35.46-47.67,60.75-87.75,60.75-51.71,0-93.77-42.07-93.77-93.77s42.07-93.77,93.77-93.77Z"/>
  <path d="M514.08,74.2c-10.02-2.78-20.41-4.19-30.89-4.19h-.42c-63.66,0-115.44,51.79-115.44,115.44v160.31h46.9v-160.31c0-37.8,30.75-68.54,68.54-68.54h.42c6.24,0,12.42.83,18.36,2.48l12.53-45.19Z"/>
  <path d="M1217.16,302.75h-.42c-37.8,0-68.54-30.75-68.54-68.54v-86.47h52.35l-19.85-46.9h-32.5v-26.77h-46.9v160.15c0,63.66,51.79,115.44,115.44,115.44h.42c10.48,0,20.87-1.41,30.89-4.18l-12.53-45.19c-5.94,1.64-12.11,2.48-18.36,2.48Z"/>
  <path d="M631.74,69.24c-77.57,0-140.67,63.11-140.67,140.67s63.11,140.67,140.67,140.67c55.36,0,103.33-32.16,126.28-78.77h-55.97c-17.19,19.51-42.32,31.87-70.31,31.87-51.71,0-93.77-42.07-93.77-93.77s42.07-93.77,93.77-93.77c43.61,0,80.37,29.93,90.8,70.32h-111.02l20.22,46.9,138.66.13c1.3-7.67,2.01-15.54,2.01-23.58,0-77.57-63.11-140.67-140.67-140.67Z"/>
</svg>