<?xml version="1.0" encoding="UTF-8"?>
<svg id="Layer_1" data-name="Layer 1" xmlns="http://www.w3.org/2000/svg" viewBox="0 0 1920 632.57">
  <g>
    <path d="M1715.83,59.47c-77.57,0-140.67,63.11-140.67,140.67s63.11,140.67,140.67,140.67,140.67-63.11,140.67-140.67-63.11-140.67-140.67-140.67ZM1715.83,293.92c-51.71,0-93.77-42.07-93.77-93.77s42.07-93.77,93.77-93.77,93.77,42.07,93.77,93.77-42.07,93.77-93.77,93.77Z"/>
    <path d="M937.63,59.47c-77.57,0-140.67,63.11-140.67,140.67s63.11,140.67,140.67,140.67c36,0,68.87-13.61,93.77-35.93v31.11h46.9v-133.47h-.06c.01-.8.06-1.58.06-2.38,0-77.57-63.11-140.67-140.67-140.67ZM937.63,293.92c-51.71,0-93.77-42.07-93.77-93.77s42.07-93.77,93.77-93.77,93.77,42.07,93.77,93.77-42.07,93.77-93.77,93.77Z"/>
    <polygon points="1207.44 64.29 1322.55 336 1373.03 336 1257.92 64.29 1207.44 64.29"/>
    <polygon points="1544.52 64.29 1452.59 281.28 1360.66 64.29 1310.18 64.29 1425.29 336 1429.4 336 1475.77 336 1479.88 336 1595 64.29 1544.52 64.29"/>
    <path d="M204.17,106.37c40.09,0,74.36,25.29,87.75,60.75h48.97c-14.9-61.68-70.53-107.65-136.72-107.65-77.57,0-140.67,63.11-140.67,140.67s63.11,140.67,140.67,140.67c66.19,0,121.82-45.97,136.72-107.65h-48.97c-13.39,35.46-47.67,60.75-87.75,60.75-51.71,0-93.77-42.07-93.77-93.77s42.07-93.77,93.77-93.77Z"/>
    <path d="M514.08,64.44c-10.02-2.78-20.41-4.19-30.89-4.19h-.42c-63.66,0-115.44,51.79-115.44,115.44v160.31h46.9v-160.31c0-37.8,30.75-68.54,68.54-68.54h.42c6.24,0,12.42.83,18.36,2.48l12.53-45.19Z"/>
    <path d="M1217.16,292.98h-.42c-37.8,0-68.54-30.75-68.54-68.54v-86.47h52.35l-19.85-46.9h-32.5v-26.77h-46.9v160.15c0,63.66,51.79,115.44,115.44,115.44h.42c10.48,0,20.87-1.41,30.89-4.18l-12.53-45.19c-5.94,1.64-12.11,2.48-18.36,2.48Z"/>
    <path d="M631.74,59.47c-77.57,0-140.67,63.11-140.67,140.67s63.11,140.67,140.67,140.67c55.36,0,103.33-32.16,126.28-78.77h-55.97c-17.19,19.51-42.32,31.87-70.31,31.87-51.71,0-93.77-42.07-93.77-93.77s42.07-93.77,93.77-93.77c43.61,0,80.37,29.93,90.8,70.32h-111.02l20.22,46.9,138.66.13c1.3-7.67,2.01-15.54,2.01-23.58,0-77.57-63.11-140.67-140.67-140.67Z"/>
  </g>
  <g>
    <path d="M117.77,572.68l-.08-39.16-19.41,32.41h-4.9l-19.41-31.9v38.66h-10.47v-59.08h9.03l23.46,39.16,23.04-39.16h9.03l.08,59.08h-10.38Z"/>
    <path d="M213.65,559.01h-29.54l-5.82,13.67h-11.31l26.59-59.08h10.8l26.67,59.08h-11.48l-5.91-13.67ZM210.02,550.4l-11.14-25.83-11.06,25.83h22.2Z"/>
    <path d="M269.78,513.6h10.97v49.8h30.89v9.28h-41.86v-59.08Z"/>
    <path d="M395.88,563.48v9.2h-44.31v-59.08h43.13v9.2h-32.16v15.36h28.53v9.03h-28.53v16.29h33.34Z"/>
    <path d="M493.88,513.6h10.97v59.08h-10.97v-59.08Z"/>
    <path d="M606.3,572.68l-.08-39.16-19.41,32.41h-4.9l-19.41-31.9v38.66h-10.47v-59.08h9.03l23.46,39.16,23.04-39.16h9.03l.08,59.08h-10.38Z"/>
    <path d="M702.19,559.01h-29.54l-5.82,13.67h-11.31l26.59-59.08h10.8l26.67,59.08h-11.48l-5.91-13.67ZM698.56,550.4l-11.14-25.83-11.06,25.83h22.2Z"/>
    <path d="M797.82,542.47h10.38v23.55c-3.04,2.42-6.58,4.28-10.64,5.57s-8.22,1.94-12.49,1.94c-6.02,0-11.45-1.31-16.29-3.93-4.84-2.62-8.64-6.23-11.39-10.85-2.76-4.61-4.14-9.82-4.14-15.62s1.38-11,4.14-15.61c2.76-4.61,6.57-8.23,11.44-10.85,4.87-2.62,10.34-3.93,16.42-3.93,4.95,0,9.45.82,13.5,2.45,4.05,1.63,7.46,4.02,10.21,7.17l-6.92,6.75c-4.5-4.5-9.93-6.75-16.29-6.75-4.16,0-7.86.87-11.1,2.62-3.24,1.75-5.77,4.19-7.6,7.34-1.83,3.15-2.74,6.75-2.74,10.8s.91,7.48,2.74,10.63c1.83,3.15,4.36,5.63,7.6,7.43,3.24,1.8,6.91,2.7,11.01,2.7,4.61,0,8.66-1.01,12.15-3.04v-18.4Z"/>
    <path d="M898.17,563.48v9.2h-44.31v-59.08h43.13v9.2h-32.16v15.36h28.53v9.03h-28.53v16.29h33.34Z"/>
    <path d="M1040.48,573.61l-7.43-7.17c-5.51,4.73-12.13,7.09-19.83,7.09-4.11,0-7.79-.68-11.06-2.03-3.26-1.35-5.82-3.22-7.68-5.61-1.86-2.39-2.78-5.11-2.78-8.15,0-3.66,1.07-6.88,3.21-9.66,2.14-2.78,5.63-5.53,10.47-8.23-2.36-2.36-4.05-4.57-5.06-6.63-1.01-2.05-1.52-4.18-1.52-6.37,0-4.16,1.56-7.53,4.68-10.09,3.12-2.56,7.27-3.84,12.45-3.84,4.78,0,8.61,1.17,11.48,3.5,2.87,2.34,4.3,5.5,4.3,9.5,0,3.04-.94,5.74-2.83,8.1-1.89,2.36-4.97,4.76-9.24,7.17l12.75,12.15c1.41-2.76,2.5-6.08,3.29-9.96l8.52,2.79c-1.13,5.23-2.9,9.74-5.32,13.5l7.43,7.09-5.82,6.84ZM1026.81,560.44l-15.61-14.94c-3.38,1.86-5.75,3.64-7.13,5.36-1.38,1.72-2.07,3.64-2.07,5.78,0,2.48,1.1,4.47,3.29,5.99,2.19,1.52,5.09,2.28,8.69,2.28,4.9,0,9.17-1.49,12.83-4.47ZM1010.43,522.17c-1.35,1.15-2.03,2.66-2.03,4.52,0,1.35.36,2.63,1.1,3.84.73,1.21,2.14,2.86,4.22,4.94,3.38-1.86,5.73-3.47,7.05-4.85,1.32-1.38,1.98-2.88,1.98-4.52,0-1.74-.61-3.12-1.81-4.14-1.21-1.01-2.88-1.52-5.02-1.52-2.31,0-4.14.58-5.49,1.73Z"/>
    <path d="M1181.86,542.47h10.38v23.55c-3.04,2.42-6.58,4.28-10.64,5.57s-8.22,1.94-12.49,1.94c-6.02,0-11.45-1.31-16.29-3.93-4.84-2.62-8.64-6.23-11.39-10.85-2.76-4.61-4.14-9.82-4.14-15.62s1.38-11,4.14-15.61c2.76-4.61,6.57-8.23,11.44-10.85,4.87-2.62,10.34-3.93,16.42-3.93,4.95,0,9.45.82,13.5,2.45,4.05,1.63,7.46,4.02,10.21,7.17l-6.92,6.75c-4.5-4.5-9.93-6.75-16.29-6.75-4.16,0-7.86.87-11.1,2.62-3.24,1.75-5.77,4.19-7.6,7.34-1.83,3.15-2.74,6.75-2.74,10.8s.91,7.48,2.74,10.63c1.83,3.15,4.36,5.63,7.6,7.43,3.24,1.8,6.91,2.7,11.01,2.7,4.61,0,8.66-1.01,12.15-3.04v-18.4Z"/>
    <path d="M1276.56,572.68l-12.07-17.3c-.51.06-1.27.09-2.28.09h-13.34v17.22h-10.97v-59.08h24.31c5.12,0,9.58.84,13.38,2.53,3.8,1.69,6.71,4.11,8.74,7.26,2.03,3.15,3.04,6.89,3.04,11.23s-1.08,8.27-3.25,11.48c-2.17,3.21-5.28,5.6-9.33,7.17l13.59,19.41h-11.82ZM1272.59,525.92c-2.48-2.03-6.11-3.04-10.89-3.04h-12.83v23.55h12.83c4.78,0,8.41-1.03,10.89-3.08,2.48-2.05,3.71-4.97,3.71-8.74s-1.24-6.67-3.71-8.69Z"/>
    <path d="M1342.14,569.6c-4.84-2.62-8.64-6.25-11.39-10.89-2.76-4.64-4.14-9.83-4.14-15.57s1.38-10.93,4.14-15.57c2.76-4.64,6.55-8.27,11.39-10.89,4.84-2.62,10.27-3.93,16.29-3.93s11.45,1.31,16.29,3.93c4.84,2.62,8.64,6.23,11.39,10.85,2.76,4.61,4.14,9.82,4.14,15.61s-1.38,11-4.14,15.62c-2.76,4.61-6.56,8.23-11.39,10.85-4.84,2.62-10.27,3.93-16.29,3.93s-11.45-1.31-16.29-3.93ZM1369.07,561.25c3.15-1.77,5.63-4.25,7.43-7.43,1.8-3.18,2.7-6.74,2.7-10.68s-.9-7.5-2.7-10.68c-1.8-3.18-4.28-5.66-7.43-7.43-3.15-1.77-6.7-2.66-10.63-2.66s-7.48.89-10.64,2.66c-3.15,1.77-5.63,4.25-7.43,7.43-1.8,3.18-2.7,6.74-2.7,10.68s.9,7.5,2.7,10.68c1.8,3.18,4.28,5.65,7.43,7.43,3.15,1.77,6.7,2.66,10.64,2.66s7.48-.89,10.63-2.66Z"/>
    <path d="M1444.44,569.6c-4.84-2.62-8.64-6.25-11.39-10.89-2.76-4.64-4.14-9.83-4.14-15.57s1.38-10.93,4.14-15.57c2.76-4.64,6.55-8.27,11.39-10.89,4.84-2.62,10.27-3.93,16.29-3.93s11.45,1.31,16.29,3.93c4.84,2.62,8.64,6.23,11.39,10.85,2.76,4.61,4.14,9.82,4.14,15.61s-1.38,11-4.14,15.62c-2.76,4.61-6.56,8.23-11.39,10.85-4.84,2.62-10.27,3.93-16.29,3.93s-11.45-1.31-16.29-3.93ZM1471.36,561.25c3.15-1.77,5.63-4.25,7.43-7.43,1.8-3.18,2.7-6.74,2.7-10.68s-.9-7.5-2.7-10.68c-1.8-3.18-4.28-5.66-7.43-7.43-3.15-1.77-6.7-2.66-10.63-2.66s-7.48.89-10.64,2.66c-3.15,1.77-5.63,4.25-7.43,7.43-1.8,3.18-2.7,6.74-2.7,10.68s.9,7.5,2.7,10.68c1.8,3.18,4.28,5.65,7.43,7.43,3.15,1.77,6.7,2.66,10.64,2.66s7.48-.89,10.63-2.66Z"/>
    <path d="M1589.7,572.68l-.08-39.16-19.41,32.41h-4.9l-19.41-31.9v38.66h-10.47v-59.08h9.03l23.46,39.16,23.04-39.16h9.03l.08,59.08h-10.38Z"/>
    <path d="M1647.26,513.6h10.97v59.08h-10.97v-59.08Z"/>
    <path d="M1757.92,513.6v59.08h-9.03l-32.58-40.01v40.01h-10.89v-59.08h9.03l32.58,40.01v-40.01h10.89Z"/>
    <path d="M1845.36,542.47h10.38v23.55c-3.04,2.42-6.58,4.28-10.64,5.57s-8.22,1.94-12.49,1.94c-6.02,0-11.45-1.31-16.29-3.93-4.84-2.62-8.64-6.23-11.39-10.85-2.76-4.61-4.14-9.82-4.14-15.62s1.38-11,4.14-15.61c2.76-4.61,6.57-8.23,11.44-10.85,4.87-2.62,10.34-3.93,16.42-3.93,4.95,0,9.45.82,13.5,2.45,4.05,1.63,7.46,4.02,10.21,7.17l-6.92,6.75c-4.5-4.5-9.93-6.75-16.29-6.75-4.16,0-7.86.87-11.1,2.62-3.24,1.75-5.77,4.19-7.6,7.34-1.83,3.15-2.74,6.75-2.74,10.8s.91,7.48,2.74,10.63c1.83,3.15,4.36,5.63,7.6,7.43,3.24,1.8,6.91,2.7,11.01,2.7,4.61,0,8.66-1.01,12.15-3.04v-18.4Z"/>
  </g>
  <rect x="63.5" y="420.82" width="1793.01" height="16.37"/>
</svg>